<?xml version="1.0" standalone="no"?>
<!DOCTYPE svg PUBLIC "-//W3C//DTD SVG 20010904//EN"
 "http://www.w3.org/TR/2001/REC-SVG-20010904/DTD/svg10.dtd">
<svg version="1.0" xmlns="http://www.w3.org/2000/svg"
 width="500.000000pt" height="500.000000pt" viewBox="0 0 500.000000 500.000000"
 preserveAspectRatio="xMidYMid meet">

<g transform="translate(0.000000,500.000000) scale(0.100000,-0.100000)"
fill="#0f2854" stroke="none">
<path d="M2384 4250 c-351 -44 -644 -297 -751 -647 -23 -77 -26 -105 -26 -228
0 -152 12 -224 63 -375 116 -349 421 -837 791 -1268 l36 -43 60 68 c189 218
424 546 563 788 138 239 233 477 266 665 81 465 -223 918 -686 1024 -86 20
-228 27 -316 16z m254 -602 c26 -13 66 -42 90 -66 152 -151 108 -414 -86 -509
-49 -24 -69 -28 -142 -28 -102 1 -158 23 -223 87 -210 211 -50 565 246 544 42
-3 85 -14 115 -28z"/>
<path d="M1222 1173 l3 -348 48 -3 c41 -3 49 0 54 17 5 19 5 19 36 0 41 -24
112 -25 157 0 19 10 48 39 64 65 54 86 47 271 -13 343 -52 62 -146 81 -208 43
l-33 -20 0 125 0 125 -55 0 -55 0 2 -347z m240 26 c29 -15 48 -70 48 -136 0
-103 -50 -161 -117 -137 -40 13 -63 66 -63 142 0 115 57 171 132 131z"/>
<path d="M3020 1395 l0 -124 -35 21 c-47 27 -127 22 -175 -12 -97 -69 -115
-288 -32 -399 45 -60 145 -80 209 -42 31 19 31 19 36 0 5 -17 13 -20 54 -17
l48 3 3 348 2 347 -55 0 -55 0 0 -125z m-48 -196 c27 -15 48 -69 48 -128 0
-123 -75 -188 -147 -127 -27 23 -28 28 -28 119 0 87 2 98 24 121 26 28 67 34
103 15z"/>
<path d="M3240 1171 c0 -368 -3 -351 55 -351 58 0 55 -17 55 351 l0 339 -55 0
-55 0 0 -339z"/>
<path d="M1850 1298 c-111 -31 -176 -158 -150 -295 25 -140 146 -219 280 -183
65 17 133 90 150 160 49 205 -96 371 -280 318z m135 -121 c84 -84 38 -267 -67
-267 -67 0 -108 56 -108 148 0 68 17 111 54 133 47 28 83 24 121 -14z"/>
<path d="M3555 1296 c-44 -19 -102 -88 -116 -138 -36 -128 3 -265 89 -316 40
-23 58 -27 117 -26 41 0 86 7 108 17 36 15 37 18 37 66 0 28 -2 51 -4 51 -2 0
-25 -10 -51 -21 -87 -38 -173 -10 -190 63 l-7 27 138 3 139 3 3 38 c9 102 -41
203 -115 233 -41 17 -109 17 -148 0z m110 -92 c18 -7 45 -54 45 -79 0 -12 -15
-15 -85 -15 -92 0 -99 5 -69 50 32 47 65 61 109 44z"/>
<path d="M2237 1293 c-7 -14 -9 -437 -2 -455 10 -24 100 -26 109 -2 3 9 6 83
6 165 0 146 1 151 25 174 32 33 89 34 107 3 9 -15 15 -80 18 -188 l5 -165 50
0 50 0 3 163 c3 181 -5 227 -47 274 -24 27 -36 32 -89 36 -50 4 -67 0 -96 -18
l-36 -22 0 21 c0 18 -6 21 -49 21 -28 0 -52 -3 -54 -7z"/>
</g>
</svg>
